<?xml version="1.0" encoding="utf-8"?>
<!-- Svg Vector Icons : http://www.onlinewebfonts.com/icon -->
<!DOCTYPE svg PUBLIC "-//W3C//DTD SVG 1.1//EN" "http://www.w3.org/Graphics/SVG/1.1/DTD/svg11.dtd">
<svg version="1.1" xmlns="http://www.w3.org/2000/svg" xmlns:xlink="http://www.w3.org/1999/xlink" x="0px" y="0px" viewBox="0 0 1000 1000" enable-background="new 0 0 1000 1000" xml:space="preserve">
<metadata> Svg Vector Icons : http://www.onlinewebfonts.com/icon </metadata>
<g><g transform="translate(0.000000,511.000000) scale(0.100000,-0.100000)"><path d="M100,110v-3209.4h845.3h845.3V110v3209.4H945.3H100V110z"/><path d="M8214.7,1726.6C7295.5,852.3,6542.7,125.8,6542.7,115.3c0-13.2,752.8-742.3,1677.4-1619.2l1680-1595.5V110c0,1764.5-2.6,3209.4-5.3,3209.4C9889.4,3316.8,9134,2600.9,8214.7,1726.6z"/><path d="M4154.7,1724c-914-871.7-1666.8-1590.2-1672.1-1603.4c-5.3-10.6,744.9-734.4,1664.2-1608.7l1672.1-1590.2l7.9,1603.4c2.7,882.3,2.7,2316.6,0,3190.9l-7.9,1587.5L4154.7,1724z"/></g></g>
</svg>